# xmcd CD database file
#
# Track frame offsets:
#	183
#	20070
#	38678
#	57570
#	78505
#	99738
#	114130
#	133740
#	154378
#	174775
#	193938
#	215583
#	237570
#	251228
#
# Disc length: 3563 seconds
#
# Revision: 0
# Processed by: cddbd v1.5.1PL0 Copyright (c) Steve Scherf et al.
# Submitted via: CDex 1.51
#
DISCID=ca0de90e
DTITLE=Sandra De Sá - D# Sá
DYEAR=1900
DGENRE=Blues
TTITLE0=Dou A Volta Por Cima
TTITLE1=Perdidamente Apaixonada
TTITLE2=Eu Assumo Essa Paixão
TTITLE3=Baião and Xote Das Meninas and Qui Nem Jiló
TTITLE4=Insensatez
TTITLE5=Free Lance
TTITLE6=Você
TTITLE7=No Morro Não Tem Play
TTITLE8=Nossa História
TTITLE9=Momento De Emoção
TTITLE10=Anjo Vaidoso
TTITLE11=Dança Comigo
TTITLE12=Desejo
TTITLE13=Depende De Você
EXTD=
EXTT0=
EXTT1=
EXTT2=
EXTT3=
EXTT4=
EXTT5=
EXTT6=
EXTT7=
EXTT8=
EXTT9=
EXTT10=
EXTT11=
EXTT12=
EXTT13=
PLAYORDER=
